Coordinates
version=1
nRows=16
nColumns=22
inDegrees=yes

Units are S.I. units (second, meters, Newtons, ...)
If the header above contains a line with 'inDegrees', this indicates whether rotational values are in degrees (yes) or radians (no).

endheader
time	pelvis_tilt	pelvis_list	pelvis_rotation	pelvis_tx	pelvis_ty	pelvis_tz	hip_flexion_r	hip_adduction_r	hip_rotation_r	knee_angle_r	ankle_angle_r	subtalar_angle_r	hip_flexion_l	hip_adduction_l	hip_rotation_l	knee_angle_l	ankle_angle_l	subtalar_angle_l	lumbar_extension	lumbar_bending	lumbar_rotation
      4.54000000	     -0.37229540	     -0.23146634	     -2.91167646	     -0.83045643	      0.93262793	      0.23966425	     -1.72784145	      3.74639814	     -0.41156785	    -10.28239039	      8.33546709	     -3.82162796	     11.36780798	     -5.07504995	     -8.91483861	    -33.68999103	     13.40039806	     -1.16102240	     -7.26444477	     -5.81119855	      3.95435084
      4.55000000	     -0.41158004	     -0.34088455	     -3.09042406	     -0.83205174	      0.93272741	      0.23983011	     -1.61084837	      3.85349174	     -0.24536228	    -10.20964268	      8.19322996	     -3.62828131	     10.80827543	     -5.09562375	     -8.93065715	    -33.41530922	     13.33930569	     -1.10318311	     -7.12542022	     -5.70255243	      3.95237963
      4.56000000	     -0.51620595	     -0.44971629	     -3.22649030	     -0.83362703	      0.93269306	      0.23986177	     -1.41108410	      3.95958965	     -0.15257698	    -10.16673029	      8.05235448	     -3.56068447	     10.30049976	     -5.10545453	     -8.94739316	    -32.97670512	     13.18393458	     -1.07365578	     -6.91855006	     -5.58119466	      3.90009874
      4.57000000	     -0.61616422	     -0.58609780	     -3.36889348	     -0.83514803	      0.93261604	      0.23985449	     -1.22204150	      4.09279272	     -0.04490459	    -10.12668554	      7.92735376	     -3.47472892	      9.74842334	     -5.15568164	     -9.06695285	    -32.35600787	     12.94397154	     -0.99023350	     -6.71796231	     -5.42439812	      3.84868545
      4.58000000	     -0.72108094	     -0.74608144	     -3.49462880	     -0.83660868	      0.93247296	      0.23976675	     -1.04153039	      4.24807217	      0.05253003	    -10.07507779	      7.82246879	     -3.38370302	      9.16383861	     -5.23709651	     -9.27181812	    -31.54474285	     12.68398760	     -0.82159778	     -6.51534205	     -5.23084815	      3.76926589
      4.59000000	     -0.84776580	     -0.93149273	     -3.60285685	     -0.83803155	      0.93224204	      0.23960425	     -0.84332767	      4.42912861	      0.12197128	    -10.02367087	      7.69854194	     -3.31471578	      8.57741964	     -5.35139564	     -9.55889496	    -30.56381092	     12.41347875	     -0.59497635	     -6.29093882	     -5.00032334	      3.66061368
      4.60000000	     -0.95616222	     -1.15311103	     -3.70061591	     -0.83936929	      0.93197221	      0.23937858	     -0.70046539	      4.64508484	      0.20178272	     -9.92340541	      7.63440300	     -3.22893268	      7.93052384	     -5.50335687	     -9.92102069	    -29.40124177	     12.19912131	     -0.17527426	     -6.08415805	     -4.72340094	      3.55444791
      4.61000000	     -1.08821114	     -1.39091913	     -3.77981239	     -0.84069081	      0.93162466	      0.23906825	     -0.53126979	      4.87552594	      0.24918538	     -9.83113331	      7.52791354	     -3.17211717	      7.29703868	     -5.67514770	    -10.37468732	    -28.10567710	     12.02520544	      0.25297432	     -5.85577043	     -4.41805007	      3.39510581
      4.62000000	     -1.21315639	     -1.64046120	     -3.84783714	     -0.84195451	      0.93125060	      0.23867978	     -0.38797332	      5.11315744	      0.28456655	     -9.71459838	      7.42547051	     -3.11993799	      6.63934993	     -5.85211321	    -10.90676169	    -26.69057519	     11.92654487	      0.72316369	     -5.63428682	     -4.09299139	      3.21898243
      4.63000000	     -1.31631980	     -1.88761005	     -3.90602761	     -0.84315543	      0.93089449	      0.23821161	     -0.28345740	      5.34175971	      0.31473051	     -9.57833847	      7.32249420	     -3.06649880	      5.94486295	     -6.01120412	    -11.49923690	    -25.17645732	     11.89863264	      1.21958127	     -5.43458540	     -3.76309961	      3.02140315
      4.64000000	     -1.39139234	     -2.11515185	     -3.96032205	     -0.84426601	      0.93058789	      0.23766219	     -0.22946074	      5.54047520	      0.34302683	     -9.41322169	      7.22077040	     -3.01024333	      5.21023227	     -6.12789603	    -12.13432564	    -23.58853418	     11.92184320	      1.69809043	     -5.25712337	     -3.44833633	      2.81608925
      4.65000000	     -1.41754086	     -2.31153845	     -4.00536852	     -0.84529690	      0.93038698	      0.23703509	     -0.24108773	      5.69715570	      0.37163480	     -9.22951331	      7.12568525	     -2.94641937	      4.42150516	     -6.18250242	    -12.77032168	    -21.95275203	     11.95933768	      2.15016473	     -5.12917013	     -3.16605531	      2.58841489
      4.66000000	     -1.40886659	     -2.45557558	     -4.04533135	     -0.84623633	      0.93029766	      0.23632799	     -0.30300459	      5.78955776	      0.40096994	     -9.02449080	      7.03060465	     -2.87995871	      3.60407409	     -6.15193774	    -13.38822266	    -20.30234526	     11.98248636	      2.51921706	     -5.02842676	     -2.93910600	      2.35572777
      4.67000000	     -1.34765383	     -2.54817371	     -4.07639522	     -0.84708670	      0.93035806	      0.23555454	     -0.42815162	      5.81966676	      0.43158952	     -8.81009949	      6.93769514	     -2.80670552	      2.74496256	     -6.03798455	    -13.95045828	    -18.65776626	     11.95735383	      2.82208505	     -4.97541935	     -2.76708479	      2.11243033
      4.68000000	     -1.23102372	     -2.59005754	     -4.10645433	     -0.84784512	      0.93058551	      0.23474392	     -0.62364755	      5.78856143	      0.46177676	     -8.57894642	      6.84942668	     -2.72365679	      1.84553740	     -5.84838462	    -14.45138105	    -17.03894416	     11.86435524	      3.06301915	     -4.97397820	     -2.65457405	      1.85707699
      4.69000000	     -1.09685576	     -2.56907214	     -4.13264570	     -0.84856150	      0.93092759	      0.23388711	     -0.82992680	      5.68768781	      0.49743270	     -8.35741633	      6.74917072	     -2.64242954	      0.96880172	     -5.57767147	    -14.85529491	    -15.48773107	     11.69821494	      3.22615908	     -4.98277530	     -2.60653786	      1.60869314
